<?xml version="1.0" encoding="UTF-8"?>
<svg id="Layer_1" data-name="Layer 1" xmlns="http://www.w3.org/2000/svg" viewBox="0 0 612 612">
  <rect x="14.57" y="13.62" width="583.75" height="583.75" rx="34.85" ry="34.85" style="fill: #1a252d;"/>
  <rect x="62.98" y="418.2" width="486.92" height="114.2" rx="19.65" ry="19.65" style="fill: #11c2ed;"/>
  <g>
    <path d="M246.89,135.9l-142.15,246.21c-2.65,4.6.66,10.34,5.97,10.34h284.3c5.31,0,8.62-5.74,5.97-10.34l-142.15-246.21c-2.65-4.6-9.29-4.6-11.94,0Z" style="fill: #fff;"/>
    <path d="M388.73,196.27l-106.41,184.31c-3.05,5.28.76,11.87,6.85,11.87h212.83c6.09,0,9.9-6.6,6.85-11.87l-106.41-184.31c-3.05-5.28-10.66-5.28-13.71,0Z" style="fill: #fff;"/>
  </g>
</svg>